<svg id="Barcode" width="100%" height="100%" viewBox="0 0 123 100" preserveAspectRatio="none" xmlns="http://www.w3.org/2000/svg">
<rect width="2" height="100" x="0" y="0" fill="black" />
<rect width="1" height="100" x="3" y="0" fill="black" />
<rect width="3" height="100" x="6" y="0" fill="black" />
<rect width="1" height="100" x="11" y="0" fill="black" />
<rect width="2" height="100" x="13" y="0" fill="black" />
<rect width="3" height="100" x="17" y="0" fill="black" />
<rect width="1" height="100" x="22" y="0" fill="black" />
<rect width="1" height="100" x="26" y="0" fill="black" />
<rect width="2" height="100" x="28" y="0" fill="black" />
<rect width="3" height="100" x="33" y="0" fill="black" />
<rect width="1" height="100" x="39" y="0" fill="black" />
<rect width="2" height="100" x="41" y="0" fill="black" />
<rect width="1" height="100" x="44" y="0" fill="black" />
<rect width="2" height="100" x="46" y="0" fill="black" />
<rect width="1" height="100" x="52" y="0" fill="black" />
<rect width="2" height="100" x="55" y="0" fill="black" />
<rect width="2" height="100" x="58" y="0" fill="black" />
<rect width="4" height="100" x="61" y="0" fill="black" />
<rect width="1" height="100" x="66" y="0" fill="black" />
<rect width="1" height="100" x="70" y="0" fill="black" />
<rect width="2" height="100" x="73" y="0" fill="black" />
<rect width="1" height="100" x="77" y="0" fill="black" />
<rect width="4" height="100" x="79" y="0" fill="black" />
<rect width="3" height="100" x="84" y="0" fill="black" />
<rect width="9" height="100" x="88" y="0" fill="black" />
<rect width="1" height="100" x="92" y="0" fill="black" />
<rect width="3" height="100" x="95" y="0" fill="black" />
<rect width="2" height="100" x="99" y="0" fill="black" />
<rect width="1" height="100" x="102" y="0" fill="black" />
<rect width="3" height="100" x="105" y="0" fill="black" />
<rect width="2" height="100" x="110" y="0" fill="black" />
<rect width="3" height="100" x="115" y="0" fill="black" />
<rect width="1" height="100" x="119" y="0" fill="black" />
<rect width="2" height="100" x="121" y="0" fill="black" /></svg>